<svg xmlns="http://www.w3.org/2000/svg" viewBox="0 0 1200 800" width="1200" height="800">
  <!-- Sky gradient -->
  <defs>
    <linearGradient id="skyGradient" x1="0%" y1="0%" x2="0%" y2="100%">
      <stop offset="0%" style="stop-color:#87CEEB;stop-opacity:1" />
      <stop offset="60%" style="stop-color:#FFD700;stop-opacity:1" />
      <stop offset="100%" style="stop-color:#FFA500;stop-opacity:1" />
    </linearGradient>
    
    <!-- Ocean gradient -->
    <linearGradient id="oceanGradient" x1="0%" y1="0%" x2="0%" y2="100%">
      <stop offset="0%" style="stop-color:#1E90FF;stop-opacity:1" />
      <stop offset="100%" style="stop-color:#000080;stop-opacity:1" />
    </linearGradient>
    
    <!-- Sun reflection -->
    <radialGradient id="sunReflection" cx="50%" cy="50%" r="50%">
      <stop offset="0%" style="stop-color:#FFFFFF;stop-opacity:0.8" />
      <stop offset="100%" style="stop-color:#FFFFFF;stop-opacity:0" />
    </radialGradient>
  </defs>
  
  <!-- Sky -->
  <rect width="1200" height="400" fill="url(#skyGradient)"/>
  
  <!-- Sun reflection on water -->
  <ellipse cx="600" cy="450" rx="300" ry="50" fill="url(#sunReflection)"/>
  
  <!-- Ocean -->
  <rect x="0" y="400" width="1200" height="400" fill="url(#oceanGradient)"/>
  
  <!-- Ocean waves -->
  <g stroke="#4169E1" stroke-width="2" opacity="0.3">
    <path d="M0 450 Q150 440 300 450 Q450 460 600 450 Q750 440 900 450 Q1050 460 1200 450" fill="none"/>
    <path d="M0 470 Q150 460 300 470 Q450 480 600 470 Q750 460 900 470 Q1050 480 1200 470" fill="none"/>
    <path d="M0 490 Q150 480 300 490 Q450 500 600 490 Q750 480 900 490 Q1050 500 1200 490" fill="none"/>
  </g>
  
  <!-- Ship -->
  <g transform="translate(800, 350)">
    <!-- Ship hull -->
    <path d="M-80 0 L-60 -20 L60 -20 L80 0 L60 20 L-60 20 Z" fill="#D3D3D3" stroke="#A9A9A9" stroke-width="2"/>
    
    <!-- Ship deck -->
    <rect x="-60" y="-20" width="120" height="40" fill="#F5F5F5" stroke="#A9A9A9" stroke-width="1"/>
    
    <!-- Ship superstructure -->
    <rect x="-40" y="-40" width="80" height="20" fill="#E6E6E6" stroke="#A9A9A9" stroke-width="1"/>
    
    <!-- Windows -->
    <circle cx="-20" cy="-30" r="3" fill="#87CEEB"/>
    <circle cx="0" cy="-30" r="3" fill="#87CEEB"/>
    <circle cx="20" cy="-30" r="3" fill="#87CEEB"/>
    
    <!-- Bridge -->
    <rect x="-20" y="-50" width="40" height="10" fill="#D3D3D3" stroke="#A9A9A9" stroke-width="1"/>
    
    <!-- Mast -->
    <line x1="0" y1="-50" x2="0" y2="-70" stroke="#A9A9A9" stroke-width="3"/>
    
    <!-- Flag -->
    <rect x="0" y="-70" width="15" height="10" fill="#FF6B6B"/>
    
    <!-- Ship wake -->
    <path d="M-100 10 Q-80 5 -60 10 Q-40 15 -20 10 Q0 5 20 10" stroke="#FFFFFF" stroke-width="2" opacity="0.6" fill="none"/>
  </g>
  
  <!-- Cloud -->
  <g transform="translate(200, 100)" opacity="0.7">
    <circle cx="0" cy="0" r="20" fill="white"/>
    <circle cx="25" cy="0" r="25" fill="white"/>
    <circle cx="50" cy="0" r="20" fill="white"/>
    <circle cx="25" cy="-15" r="15" fill="white"/>
  </g>
</svg>